<svg width="1024" height="1024" viewBox="0 0 1024 1024" fill="none" xmlns="http://www.w3.org/2000/svg">
<g clip-path="url(#clip0)">
<rect width="1024" height="1024" fill="black"/>
<path d="M425.795 231.347C568.865 349.079 685.071 817.418 685.071 817.418H465.201L425.795 231.347Z" fill="#48BDFF"/>
<path d="M401.848 72.9262C401.848 72.9262 322.938 64.5903 303.505 97.9339C197.472 279.869 209.948 596.978 201.63 817.418H451.453L401.848 72.9262Z" fill="#48BDFF"/>
<path d="M888.488 894.536C900.181 879.168 939.621 828.786 919.113 828.786C898.605 828.786 398.343 830.743 137.788 832.114C137.788 832.114 96.4528 891.103 99.6897 901.137C102.927 911.17 341.799 945.649 509.694 941.13C651.606 937.31 876.795 909.905 888.488 894.536Z" fill="#48BDFF" stroke="black"/>
<rect width="53.4876" height="283.583" transform="matrix(-0.997986 -0.063441 -0.063441 0.997986 490.616 852.241)" fill="#48BDFF"/>
<rect width="45.8287" height="283.583" transform="matrix(-0.999707 -0.0242173 -0.0242173 0.999707 185.443 872.543)" fill="#48BDFF"/>
</g>
<defs>
<clipPath id="clip0">
<rect width="1024" height="1024" fill="white"/>
</clipPath>
</defs>
</svg>
