<svg width="500" height="500" viewBox="0 0 500 500" fill="none" xmlns="http://www.w3.org/2000/svg">
<g clip-path="url(#clip0)">
<path d="M209.694 123.429C277.418 179.16 332.426 400.855 332.426 400.855H228.347L209.694 123.429Z" fill="#48BDFF"/>
<path d="M198.358 48.4384C198.358 48.4384 161.005 44.4925 151.806 60.2762C101.613 146.398 107.519 296.506 103.581 400.855H221.839L198.358 48.4384Z" fill="#48BDFF"/>
<path d="M428.716 437.36C434.252 430.085 452.921 406.236 443.213 406.236C433.505 406.236 196.699 407.163 73.3608 407.812C73.3608 407.812 53.7942 435.735 55.3265 440.485C56.8587 445.234 169.933 461.555 249.408 459.416C316.585 457.608 423.181 444.635 428.716 437.36Z" fill="#48BDFF"/>
<rect width="25.3192" height="134.238" transform="matrix(-0.997986 -0.063441 -0.063441 0.997986 240.378 417.339)" fill="#48BDFF"/>
<rect width="21.6937" height="134.238" transform="matrix(-0.999707 -0.0242173 -0.0242173 0.999707 95.9191 426.95)" fill="#48BDFF"/>
</g>
<defs>
<clipPath id="clip0">
<rect width="500" height="500" fill="white"/>
</clipPath>
</defs>
</svg>
